<mxfile host="app.diagrams.net" agent="Mozilla/5.0 (Macintosh; Intel Mac OS X 10.15; rv:138.0) Gecko/20100101 Firefox/138.0" version="27.0.9">
  <diagram name="Seite-1" id="SihNaje8-9wR3qkRNZR8">
    <mxGraphModel dx="-486" dy="180" grid="1" gridSize="10" guides="1" tooltips="1" connect="1" arrows="1" fold="1" page="0" pageScale="1" pageWidth="827" pageHeight="1169" math="0" shadow="0">
      <root>
        <mxCell id="0" />
        <mxCell id="1" parent="0" />
        <mxCell id="zTeXIrseUbLqfUmHTD1K-114" value="" style="whiteSpace=wrap;html=1;fontFamily=Helvetica;" vertex="1" parent="1">
          <mxGeometry x="2150" y="1740.0000000000002" width="240" height="160" as="geometry" />
        </mxCell>
        <mxCell id="zTeXIrseUbLqfUmHTD1K-115" value="" style="edgeStyle=none;orthogonalLoop=1;jettySize=auto;html=1;rounded=0;fontFamily=Helvetica;" edge="1" parent="1">
          <mxGeometry width="80" relative="1" as="geometry">
            <mxPoint x="2030" y="1820.0000000000002" as="sourcePoint" />
            <mxPoint x="2150" y="1819.5000000000002" as="targetPoint" />
            <Array as="points" />
          </mxGeometry>
        </mxCell>
        <mxCell id="zTeXIrseUbLqfUmHTD1K-116" value="" style="edgeStyle=none;orthogonalLoop=1;jettySize=auto;html=1;rounded=0;fontFamily=Helvetica;" edge="1" parent="1">
          <mxGeometry width="80" relative="1" as="geometry">
            <mxPoint x="2390" y="1819.5000000000002" as="sourcePoint" />
            <mxPoint x="2510" y="1820.0000000000002" as="targetPoint" />
            <Array as="points" />
          </mxGeometry>
        </mxCell>
        <mxCell id="zTeXIrseUbLqfUmHTD1K-117" value="" style="whiteSpace=wrap;html=1;fontFamily=Helvetica;" vertex="1" parent="1">
          <mxGeometry x="2250" y="1720.0000000000002" width="40" height="30" as="geometry" />
        </mxCell>
        <mxCell id="zTeXIrseUbLqfUmHTD1K-118" value="" style="whiteSpace=wrap;html=1;fontFamily=Helvetica;" vertex="1" parent="1">
          <mxGeometry x="2230" y="1660" width="80" height="10" as="geometry" />
        </mxCell>
        <mxCell id="zTeXIrseUbLqfUmHTD1K-119" value="" style="edgeStyle=none;orthogonalLoop=1;jettySize=auto;html=1;rounded=0;fontFamily=Helvetica;" edge="1" parent="1" target="zTeXIrseUbLqfUmHTD1K-120">
          <mxGeometry width="80" relative="1" as="geometry">
            <mxPoint x="2310" y="1650" as="sourcePoint" />
            <mxPoint x="2310" y="1620" as="targetPoint" />
            <Array as="points" />
          </mxGeometry>
        </mxCell>
        <mxCell id="zTeXIrseUbLqfUmHTD1K-120" value="" style="whiteSpace=wrap;html=1;fontFamily=Helvetica;" vertex="1" parent="1">
          <mxGeometry x="2220" y="1640" width="100" height="80" as="geometry" />
        </mxCell>
        <mxCell id="zTeXIrseUbLqfUmHTD1K-121" value="" style="edgeStyle=none;orthogonalLoop=1;jettySize=auto;html=1;rounded=0;shape=link;fontFamily=Helvetica;" edge="1" parent="1">
          <mxGeometry width="80" relative="1" as="geometry">
            <mxPoint x="2230" y="1640" as="sourcePoint" />
            <mxPoint x="2230" y="1620" as="targetPoint" />
            <Array as="points" />
          </mxGeometry>
        </mxCell>
        <mxCell id="zTeXIrseUbLqfUmHTD1K-122" value="" style="edgeStyle=none;orthogonalLoop=1;jettySize=auto;html=1;rounded=0;shape=link;fontFamily=Helvetica;" edge="1" parent="1">
          <mxGeometry width="80" relative="1" as="geometry">
            <mxPoint x="2310" y="1640" as="sourcePoint" />
            <mxPoint x="2310" y="1620" as="targetPoint" />
            <Array as="points" />
          </mxGeometry>
        </mxCell>
        <mxCell id="zTeXIrseUbLqfUmHTD1K-123" value="" style="whiteSpace=wrap;html=1;fontFamily=Helvetica;" vertex="1" parent="1">
          <mxGeometry x="2230" y="1650" width="80" height="40" as="geometry" />
        </mxCell>
        <mxCell id="zTeXIrseUbLqfUmHTD1K-124" value="&lt;b&gt;Input&lt;/b&gt;&lt;div&gt;x = 159 cm&lt;/div&gt;" style="text;strokeColor=none;align=center;fillColor=none;html=1;verticalAlign=middle;whiteSpace=wrap;rounded=0;fontFamily=Helvetica;fontSize=16;" vertex="1" parent="1">
          <mxGeometry x="2050" y="1770.0000000000002" width="90" height="50" as="geometry" />
        </mxCell>
        <mxCell id="zTeXIrseUbLqfUmHTD1K-125" value="&lt;b&gt;Output&lt;/b&gt;&lt;div&gt;y = 26,73 km/h&lt;/div&gt;" style="text;strokeColor=none;align=center;fillColor=none;html=1;verticalAlign=middle;whiteSpace=wrap;rounded=0;fontFamily=Helvetica;fontSize=16;" vertex="1" parent="1">
          <mxGeometry x="2400" y="1770" width="110" height="50" as="geometry" />
        </mxCell>
        <mxCell id="zTeXIrseUbLqfUmHTD1K-126" value="&lt;div&gt;&lt;b&gt;&lt;font style=&quot;font-size: 16px;&quot;&gt;Modell: Anwendung&lt;/font&gt;&lt;/b&gt;&lt;/div&gt;" style="text;strokeColor=none;align=left;fillColor=none;html=1;verticalAlign=middle;whiteSpace=wrap;rounded=0;fontFamily=Helvetica;" vertex="1" parent="1">
          <mxGeometry x="2164.75" y="1750.0000000000002" width="210.5" height="30" as="geometry" />
        </mxCell>
        <mxCell id="zTeXIrseUbLqfUmHTD1K-127" value="&lt;div style=&quot;font-size: 14px;&quot;&gt;&lt;font style=&quot;font-size: 14px;&quot;&gt;&amp;nbsp;0,33 * 159 - 25,74 = &lt;b&gt;26,73 &lt;br&gt;&lt;/b&gt;&lt;/font&gt;&lt;/div&gt;&lt;div style=&quot;font-size: 14px;&quot;&gt;&lt;font style=&quot;font-size: 14px;&quot;&gt;&lt;br&gt;&lt;/font&gt;&lt;/div&gt;&lt;div style=&quot;font-size: 14px;&quot;&gt;&lt;font style=&quot;font-size: 14px;&quot;&gt;m (0,33) und c (-25,74) wurden&lt;/font&gt;&lt;/div&gt;&lt;div style=&quot;font-size: 14px;&quot;&gt;&lt;font style=&quot;font-size: 14px;&quot;&gt;durch lineare Regression berechnet.&lt;/font&gt;&lt;/div&gt;&lt;div&gt;&lt;br&gt;&lt;/div&gt;" style="text;html=1;align=left;verticalAlign=top;whiteSpace=wrap;rounded=0;fontFamily=Helvetica;" vertex="1" parent="1">
          <mxGeometry x="2160" y="1790.0000000000002" width="230" height="90" as="geometry" />
        </mxCell>
        <mxCell id="zTeXIrseUbLqfUmHTD1K-128" value="" style="endArrow=none;html=1;rounded=0;fontFamily=Helvetica;" edge="1" parent="1">
          <mxGeometry width="50" height="50" relative="1" as="geometry">
            <mxPoint x="2160" y="1780.0000000000002" as="sourcePoint" />
            <mxPoint x="2380" y="1780.0000000000002" as="targetPoint" />
          </mxGeometry>
        </mxCell>
      </root>
    </mxGraphModel>
  </diagram>
</mxfile>
